######## ######## ######## ##          ######## ########  ######## ######## 
##       ##       ##       ##          ##       ##     ## ##       ##       
##       ##       ##       ##          ##       ##     ## ##       ##       
######   ######   ######   ##          ######   ########  ######   ######   
##       ##       ##       ##          ##       ##   ##   ##       ##       
##       ##       ##       ##          ##       ##    ##  ##       ##       
##       ######## ######## ########    ##       ##     ## ######## ######## 



 Genre:Horror | Thriller 
 Language:English  http://www.imdb.com/title/tt0873886
 Source:1080p BluRay x264-REFiNED Thanks!

 Format : MPEG-4
 Format profile : Base Media
 Codec ID : isom
 File size : 2.03 GiB
 Duration : 1h 28mn
 Overall bit rate : 3 289 Kbps

 Video
 ID : 1
 Format : AVC
 Format/Info : Advanced Video Codec
 Format profile : High@L4.1
 Format settings, CABAC : Yes
 Format settings, ReFrames : 3 frames
 Format settings, GOP : M=1, N=24
 Codec ID : avc1
 Codec ID/Info : Advanced Video Coding
 Duration : 1h 28mn
 Bit rate mode : Variable
 Bit rate : 3 000 Kbps
 Maximum bit rate : 14.7 Mbps
 Width : 1 280 pixels
 Height : 688 pixels
 Display aspect ratio : 1.860
 Frame rate mode : Constant
 Frame rate : 23.976 fps
 Color space : YUV
 Chroma subsampling : 4:2:0
 Bit depth : 8 bits
 Scan type : Progressive
 Bits/(Pixel*Frame) : 0.142
 Stream size : 1.78 GiB (87%)
 Writing library : x264

 Audio
 ID : 2
 Format : AAC
 Format/Info : Advanced Audio Codec
 Format version : Version 4
 Format profile : LC
 Format settings, SBR : No
 Codec ID : 40
 Duration : 1h 28mn
 Bit rate mode : Variable
 Bit rate : 414 Kbps
 Maximum bit rate : 535 Kbps
 Channel(s) : 6 channels
 Channel positions : Front: L C R, Side: L R, LFE
 Sampling rate : 48.0 KHz
 Stream size : 262 MiB (13%)


 Plot:
 Set in Middle America, a group of teens receive an online invitation for sex, 
 though they soon encounter fundamentalists with a much more sinister agenda

 
 Greets:

 INK,CRYS,IMAGINE,LKRG,FXG,3Li,FLAWL3SS,TA,iLLUSiON,ViSiON,DTRG 
 SAFCuk009,LU,TheFalcon007,MYSTiC,PrisM,Noir,WBZ,LAP,Rx,Kingdom,SAFCuk009+Fabreezy,HDLiTE,TWiZTED,ETRG.ELEKTRI4KA,MAGNAT,CM8
 And to all the other p2p grps past and present




 
 ==================================  http://thepiratebay.org/user/hiest
 ==================================





 Screen Shots:
  http://shareimage.org/images/fpok4tr1ue2mvbdnb9tl.png
  http://shareimage.org/images/leiob272pejwpuaj4hd.png
  http://shareimage.org/images/dbiwbqbtl5ffxb9xmgq.png
  http://shareimage.org/images/ybp30ma2g1vsfiwfg8go.png
  http://shareimage.org/images/up7cm8wst498git8fvb0.png



######## ######## ######## ##          ######## ########  ######## ######## 
##       ##       ##       ##          ##       ##     ## ##       ##       
##       ##       ##       ##          ##       ##     ## ##       ##       
######   ######   ######   ##          ######   ########  ######   ######   
##       ##       ##       ##          ##       ##   ##   ##       ##       
##       ##       ##       ##          ##       ##    ##  ##       ##       
##       ######## ######## ########    ##       ##     ## ######## ######## 